M48
; DRILL file {KiCad 5.1.9+dfsg1-1} date Thu Apr  8 16:29:40 2021
; FORMAT={-:-/ absolute / inch / decimal}
; #@! TF.CreationDate,2021-04-08T16:29:40+09:00
; #@! TF.GenerationSoftware,Kicad,Pcbnew,5.1.9+dfsg1-1
; #@! TF.FileFunction,NonPlated,1,2,NPTH
FMAT,2
INCH
T1C0.0472
T2C0.0748
T3C0.1299
%
G90
G05
T1
X5.1378Y-4.875
X5.4134Y-4.875
X5.6102Y-4.875
X5.8858Y-4.875
T2
X2.2835Y-3.5335
X2.2835Y-3.9665
X2.2835Y-4.2835
X2.2835Y-4.7165
X2.2835Y-5.0335
X2.2835Y-5.4665
X2.2835Y-5.7835
X2.2835Y-6.2165
X3.2283Y-1.2835
X3.2283Y-1.7165
X3.2283Y-2.0335
X3.2283Y-2.4665
X3.2283Y-2.7835
X3.2283Y-3.2165
X3.2283Y-3.5335
X3.2283Y-3.9665
X3.2283Y-4.2835
X3.2283Y-4.7165
X3.2283Y-5.0335
X3.2283Y-5.4665
X3.8583Y-1.2835
X3.8583Y-1.7165
X3.8583Y-2.0335
X3.8583Y-2.4665
X3.8583Y-2.7835
X3.8583Y-3.2165
X3.8583Y-3.5335
X3.8583Y-3.9665
X3.8583Y-4.2835
X3.8583Y-4.7165
X3.8583Y-5.0335
X3.8583Y-5.4665
X4.4882Y-1.2835
X4.4882Y-1.7165
X4.4882Y-2.0335
X4.4882Y-2.4665
X4.4882Y-2.7835
X4.4882Y-3.2165
X4.4882Y-3.5335
X4.4882Y-3.9665
X4.4882Y-4.2835
X4.4882Y-4.7165
X4.4882Y-5.0335
X4.4882Y-5.4665
X5.1181Y-1.2835
X5.1181Y-1.7165
X5.1181Y-2.0335
X5.1181Y-2.4665
X5.1181Y-2.7835
X5.1181Y-3.2165
X5.1181Y-3.5335
X5.1181Y-3.9665
X5.1181Y-4.2835
X5.1181Y-4.7165
X5.1181Y-5.0335
X5.1181Y-5.4665
X5.9055Y-1.2835
X5.9055Y-1.7165
X5.9055Y-2.0335
X5.9055Y-2.4665
X5.9055Y-2.7835
X5.9055Y-3.2165
X5.9055Y-3.5335
X5.9055Y-3.9666
X5.9055Y-4.2835
X5.9055Y-4.7166
X5.9055Y-5.0335
X5.9055Y-5.4666
X6.5354Y-1.2835
X6.5354Y-1.7165
X6.5354Y-2.0335
X6.5354Y-2.4665
X6.5354Y-2.7835
X6.5354Y-3.2165
X6.5354Y-3.5335
X6.5354Y-3.9666
X6.5354Y-4.2835
X6.5354Y-4.7166
X6.5354Y-5.0335
X6.5354Y-5.4666
X7.1654Y-1.2835
X7.1654Y-1.7165
X7.1654Y-2.0335
X7.1654Y-2.4665
X7.1654Y-2.7835
X7.1654Y-3.2165
X7.1654Y-3.5335
X7.1654Y-3.9666
X7.1654Y-4.2835
X7.1654Y-4.7166
X7.1654Y-5.0335
X7.1654Y-5.4666
X7.7953Y-1.2835
X7.7953Y-1.7165
X7.7953Y-2.0335
X7.7953Y-2.4665
X7.7953Y-2.7835
X7.7953Y-3.2165
X7.7953Y-3.5335
X7.7953Y-3.9666
X7.7953Y-4.2835
X7.7953Y-4.7166
X7.7953Y-5.0335
X7.7953Y-5.4666
X8.7402Y-3.5335
X8.7402Y-3.9665
X8.7402Y-4.2835
X8.7402Y-4.7165
X8.7402Y-5.0335
X8.7402Y-5.4665
X8.7402Y-5.7835
X8.7402Y-6.2165
T3
X2.2835Y-3.75
X2.2835Y-4.5
X2.2835Y-5.25
X2.2835Y-6.0
X3.2283Y-1.5
X3.2283Y-2.25
X3.2283Y-3.0
X3.2283Y-3.75
X3.2283Y-4.5
X3.2283Y-5.25
X3.8583Y-1.5
X3.8583Y-2.25
X3.8583Y-3.0
X3.8583Y-3.75
X3.8583Y-4.5
X3.8583Y-5.25
X4.4882Y-1.5
X4.4882Y-2.25
X4.4882Y-3.0
X4.4882Y-3.75
X4.4882Y-4.5
X4.4882Y-5.25
X5.1181Y-1.5
X5.1181Y-2.25
X5.1181Y-3.0
X5.1181Y-3.75
X5.1181Y-4.5
X5.1181Y-5.25
X5.9055Y-1.5
X5.9055Y-2.25
X5.9055Y-3.0
X5.9055Y-3.75
X5.9055Y-4.5
X5.9055Y-5.25
X6.5354Y-1.5
X6.5354Y-2.25
X6.5354Y-3.0
X6.5354Y-3.75
X6.5354Y-4.5
X6.5354Y-5.25
X7.1654Y-1.5
X7.1654Y-2.25
X7.1654Y-3.0
X7.1654Y-3.75
X7.1654Y-4.5
X7.1654Y-5.25
X7.7953Y-1.5
X7.7953Y-2.25
X7.7953Y-3.0
X7.7953Y-3.75
X7.7953Y-4.5
X7.7953Y-5.25
X8.7402Y-3.75
X8.7402Y-4.5
X8.7402Y-5.25
X8.7402Y-6.0
T0
M30
