M48
; DRILL file {KiCad 5.1.9+dfsg1-1} date Thu Apr  8 16:29:40 2021
; FORMAT={-:-/ absolute / inch / decimal}
; #@! TF.CreationDate,2021-04-08T16:29:40+09:00
; #@! TF.GenerationSoftware,Kicad,Pcbnew,5.1.9+dfsg1-1
; #@! TF.FileFunction,Plated,1,2,PTH
FMAT,2
INCH
T1C0.0118
T2C0.0157
T3C0.0320
T4C0.0394
T5C0.0512
T6C0.0866
%
G90
G05
T2
X2.0866Y-5.0255
X2.1654Y-3.8255
X2.1654Y-6.1255
X3.5827Y-2.3255
X4.1732Y-1.8755
X4.1732Y-2.3255
X4.2126Y-1.2891
X4.2126Y-1.3755
X4.2126Y-2.3755
X4.2126Y-5.4755
X4.252Y-2.4255
X4.2717Y-4.6755
X4.2913Y-3.9755
X4.4094Y-4.7755
X4.9213Y-1.3755
X5.2362Y-2.0255
X5.2362Y-2.6255
X5.2362Y-4.5755
X5.748Y-1.7255
X6.0236Y-1.6755
X6.2205Y-4.2755
X6.6142Y-3.3755
X6.6142Y-4.1255
X6.6535Y-1.6755
X6.6929Y-4.8755
X6.7717Y-3.3755
X6.7717Y-4.8755
X6.8898Y-1.3255
X7.0079Y-1.8755
X7.6378Y-2.6255
T3
X4.8184Y-1.2755
X4.8184Y-1.3755
X4.8184Y-1.4755
X4.8184Y-1.5755
X4.8184Y-1.6755
X4.8184Y-1.7755
X4.8184Y-1.8755
X4.8184Y-1.9755
X4.8184Y-2.0755
X4.8184Y-2.1755
X4.8184Y-2.2755
X4.8184Y-2.3755
X5.4177Y-1.2755
X5.4177Y-1.3755
X5.4177Y-1.4755
X5.4177Y-1.5755
X5.4177Y-1.6755
X5.4177Y-1.7755
X5.4177Y-1.8755
X5.4177Y-1.9755
X5.4177Y-2.0755
X5.4177Y-2.1755
X5.4177Y-2.2755
X5.4177Y-2.3755
X5.6059Y-1.2755
X5.6059Y-1.3755
X5.6059Y-1.4755
X5.6059Y-1.5755
X5.6059Y-1.6755
X5.6059Y-1.7755
X5.6059Y-1.8755
X5.6059Y-1.9755
X5.6059Y-2.0755
X5.6059Y-2.1755
X5.6059Y-2.2755
X5.6059Y-2.3755
X6.2051Y-1.2755
X6.2051Y-1.3755
X6.2051Y-1.4755
X6.2051Y-1.5755
X6.2051Y-1.6755
X6.2051Y-1.7755
X6.2051Y-1.8755
X6.2051Y-1.9755
X6.2051Y-2.0755
X6.2051Y-2.1755
X6.2051Y-2.2755
X6.2051Y-2.3755
T5
X4.8819Y-2.8721
X4.8819Y-3.128
X6.1417Y-2.8721
X6.1417Y-3.128
T6
X2.2835Y-4.125
X2.2835Y-5.625
X3.5433Y-1.875
X3.5433Y-4.875
X4.8031Y-4.875
X5.1181Y-2.625
X5.9055Y-2.625
X6.2205Y-4.875
X7.4803Y-1.875
X7.4803Y-4.875
X8.7402Y-4.125
X8.7402Y-5.625
T1
G00X2.4331Y-3.9331
M15
G01X2.4331Y-3.9606
M16
G05
G00X2.4331Y-4.6831
M15
G01X2.4331Y-4.7106
M16
G05
G00X2.4331Y-5.4331
M15
G01X2.4331Y-5.4606
M16
G05
G00X2.4331Y-6.1831
M15
G01X2.4331Y-6.2106
M16
G05
G00X2.5157Y-3.7362
M15
G01X2.5157Y-3.7638
M16
G05
G00X2.5157Y-4.4862
M15
G01X2.5157Y-4.5138
M16
G05
G00X2.5157Y-5.2362
M15
G01X2.5157Y-5.2638
M16
G05
G00X2.5157Y-5.9862
M15
G01X2.5157Y-6.0138
M16
G05
G00X3.378Y-1.6831
M15
G01X3.378Y-1.7106
M16
G05
G00X3.378Y-2.4331
M15
G01X3.378Y-2.4606
M16
G05
G00X3.378Y-3.1831
M15
G01X3.378Y-3.2106
M16
G05
G00X3.378Y-3.9331
M15
G01X3.378Y-3.9606
M16
G05
G00X3.378Y-4.6831
M15
G01X3.378Y-4.7106
M16
G05
G00X3.378Y-5.4331
M15
G01X3.378Y-5.4606
M16
G05
G00X3.4606Y-1.4862
M15
G01X3.4606Y-1.5138
M16
G05
G00X3.4606Y-2.2362
M15
G01X3.4606Y-2.2638
M16
G05
G00X3.4606Y-2.9862
M15
G01X3.4606Y-3.0138
M16
G05
G00X3.4606Y-3.7362
M15
G01X3.4606Y-3.7638
M16
G05
G00X3.4606Y-4.4862
M15
G01X3.4606Y-4.5138
M16
G05
G00X3.4606Y-5.2362
M15
G01X3.4606Y-5.2638
M16
G05
G00X4.0079Y-1.6831
M15
G01X4.0079Y-1.7106
M16
G05
G00X4.0079Y-2.4331
M15
G01X4.0079Y-2.4606
M16
G05
G00X4.0079Y-3.1831
M15
G01X4.0079Y-3.2106
M16
G05
G00X4.0079Y-3.9331
M15
G01X4.0079Y-3.9606
M16
G05
G00X4.0079Y-4.6831
M15
G01X4.0079Y-4.7106
M16
G05
G00X4.0079Y-5.4331
M15
G01X4.0079Y-5.4606
M16
G05
G00X4.0906Y-1.4862
M15
G01X4.0906Y-1.5138
M16
G05
G00X4.0906Y-2.2362
M15
G01X4.0906Y-2.2638
M16
G05
G00X4.0906Y-2.9862
M15
G01X4.0906Y-3.0138
M16
G05
G00X4.0906Y-3.7362
M15
G01X4.0906Y-3.7638
M16
G05
G00X4.0906Y-4.4862
M15
G01X4.0906Y-4.5138
M16
G05
G00X4.0906Y-5.2362
M15
G01X4.0906Y-5.2638
M16
G05
G00X4.6378Y-1.6831
M15
G01X4.6378Y-1.7106
M16
G05
G00X4.6378Y-2.4331
M15
G01X4.6378Y-2.4606
M16
G05
G00X4.6378Y-3.1831
M15
G01X4.6378Y-3.2106
M16
G05
G00X4.6378Y-3.9331
M15
G01X4.6378Y-3.9606
M16
G05
G00X4.6378Y-4.6831
M15
G01X4.6378Y-4.7106
M16
G05
G00X4.6378Y-5.4331
M15
G01X4.6378Y-5.4606
M16
G05
G00X4.7205Y-1.4862
M15
G01X4.7205Y-1.5138
M16
G05
G00X4.7205Y-2.2362
M15
G01X4.7205Y-2.2638
M16
G05
G00X4.7205Y-2.9862
M15
G01X4.7205Y-3.0138
M16
G05
G00X4.7205Y-3.7362
M15
G01X4.7205Y-3.7638
M16
G05
G00X4.7205Y-4.4862
M15
G01X4.7205Y-4.5138
M16
G05
G00X4.7205Y-5.2362
M15
G01X4.7205Y-5.2638
M16
G05
G00X5.2677Y-1.6831
M15
G01X5.2677Y-1.7106
M16
G05
G00X5.2677Y-2.4331
M15
G01X5.2677Y-2.4606
M16
G05
G00X5.2677Y-3.1831
M15
G01X5.2677Y-3.2106
M16
G05
G00X5.2677Y-3.9331
M15
G01X5.2677Y-3.9606
M16
G05
G00X5.2677Y-4.6831
M15
G01X5.2677Y-4.7106
M16
G05
G00X5.2677Y-5.4331
M15
G01X5.2677Y-5.4606
M16
G05
G00X5.3504Y-1.4862
M15
G01X5.3504Y-1.5138
M16
G05
G00X5.3504Y-2.2362
M15
G01X5.3504Y-2.2638
M16
G05
G00X5.3504Y-2.9862
M15
G01X5.3504Y-3.0138
M16
G05
G00X5.3504Y-3.7362
M15
G01X5.3504Y-3.7638
M16
G05
G00X5.3504Y-4.4862
M15
G01X5.3504Y-4.5138
M16
G05
G00X5.3504Y-5.2362
M15
G01X5.3504Y-5.2638
M16
G05
G00X5.6732Y-1.5138
M15
G01X5.6732Y-1.4862
M16
G05
G00X5.6732Y-2.2638
M15
G01X5.6732Y-2.2362
M16
G05
G00X5.6732Y-3.0138
M15
G01X5.6732Y-2.9862
M16
G05
G00X5.6732Y-3.7638
M15
G01X5.6732Y-3.7362
M16
G05
G00X5.6732Y-4.5138
M15
G01X5.6732Y-4.4862
M16
G05
G00X5.6732Y-5.2638
M15
G01X5.6732Y-5.2362
M16
G05
G00X5.7559Y-1.3169
M15
G01X5.7559Y-1.2894
M16
G05
G00X5.7559Y-2.0669
M15
G01X5.7559Y-2.0394
M16
G05
G00X5.7559Y-2.8169
M15
G01X5.7559Y-2.7894
M16
G05
G00X5.7559Y-3.5669
M15
G01X5.7559Y-3.5394
M16
G05
G00X5.7559Y-4.3169
M15
G01X5.7559Y-4.2894
M16
G05
G00X5.7559Y-5.067
M15
G01X5.7559Y-5.0394
M16
G05
G00X6.3031Y-1.5138
M15
G01X6.3031Y-1.4862
M16
G05
G00X6.3031Y-2.2638
M15
G01X6.3031Y-2.2362
M16
G05
G00X6.3031Y-3.0138
M15
G01X6.3031Y-2.9862
M16
G05
G00X6.3031Y-3.7638
M15
G01X6.3031Y-3.7362
M16
G05
G00X6.3031Y-4.5138
M15
G01X6.3031Y-4.4862
M16
G05
G00X6.3031Y-5.2638
M15
G01X6.3031Y-5.2362
M16
G05
G00X6.3858Y-1.3169
M15
G01X6.3858Y-1.2894
M16
G05
G00X6.3858Y-2.0669
M15
G01X6.3858Y-2.0394
M16
G05
G00X6.3858Y-2.8169
M15
G01X6.3858Y-2.7894
M16
G05
G00X6.3858Y-3.5669
M15
G01X6.3858Y-3.5394
M16
G05
G00X6.3858Y-4.3169
M15
G01X6.3858Y-4.2894
M16
G05
G00X6.3858Y-5.067
M15
G01X6.3858Y-5.0394
M16
G05
G00X6.9331Y-1.5138
M15
G01X6.9331Y-1.4862
M16
G05
G00X6.9331Y-2.2638
M15
G01X6.9331Y-2.2362
M16
G05
G00X6.9331Y-3.0138
M15
G01X6.9331Y-2.9862
M16
G05
G00X6.9331Y-3.7638
M15
G01X6.9331Y-3.7362
M16
G05
G00X6.9331Y-4.5138
M15
G01X6.9331Y-4.4862
M16
G05
G00X6.9331Y-5.2638
M15
G01X6.9331Y-5.2362
M16
G05
G00X7.0157Y-1.3169
M15
G01X7.0157Y-1.2894
M16
G05
G00X7.0157Y-2.0669
M15
G01X7.0157Y-2.0394
M16
G05
G00X7.0157Y-2.8169
M15
G01X7.0157Y-2.7894
M16
G05
G00X7.0157Y-3.5669
M15
G01X7.0157Y-3.5394
M16
G05
G00X7.0157Y-4.3169
M15
G01X7.0157Y-4.2894
M16
G05
G00X7.0157Y-5.067
M15
G01X7.0157Y-5.0394
M16
G05
G00X7.563Y-1.5138
M15
G01X7.563Y-1.4862
M16
G05
G00X7.563Y-2.2638
M15
G01X7.563Y-2.2362
M16
G05
G00X7.563Y-3.0138
M15
G01X7.563Y-2.9862
M16
G05
G00X7.563Y-3.7638
M15
G01X7.563Y-3.7362
M16
G05
G00X7.563Y-4.5138
M15
G01X7.563Y-4.4862
M16
G05
G00X7.563Y-5.2638
M15
G01X7.563Y-5.2362
M16
G05
G00X7.6457Y-1.3169
M15
G01X7.6457Y-1.2894
M16
G05
G00X7.6457Y-2.0669
M15
G01X7.6457Y-2.0394
M16
G05
G00X7.6457Y-2.8169
M15
G01X7.6457Y-2.7894
M16
G05
G00X7.6457Y-3.5669
M15
G01X7.6457Y-3.5394
M16
G05
G00X7.6457Y-4.3169
M15
G01X7.6457Y-4.2894
M16
G05
G00X7.6457Y-5.067
M15
G01X7.6457Y-5.0394
M16
G05
G00X8.5079Y-3.7638
M15
G01X8.5079Y-3.7362
M16
G05
G00X8.5079Y-4.5138
M15
G01X8.5079Y-4.4862
M16
G05
G00X8.5079Y-5.2638
M15
G01X8.5079Y-5.2362
M16
G05
G00X8.5079Y-6.0138
M15
G01X8.5079Y-5.9862
M16
G05
G00X8.5906Y-3.5669
M15
G01X8.5906Y-3.5394
M16
G05
G00X8.5906Y-4.3169
M15
G01X8.5906Y-4.2894
M16
G05
G00X8.5906Y-5.0669
M15
G01X8.5906Y-5.0394
M16
G05
G00X8.5906Y-5.8169
M15
G01X8.5906Y-5.7894
M16
G05
T4
G00X4.998Y-4.9577
M15
G01X5.0177Y-4.9577
M16
G05
G00X5.0571Y-4.7923
M15
G01X5.0768Y-4.7923
M16
G05
G00X5.2146Y-4.7923
M15
G01X5.2343Y-4.7923
M16
G05
G00X5.3327Y-4.7923
M15
G01X5.3524Y-4.7923
M16
G05
G00X5.6909Y-4.9577
M15
G01X5.6713Y-4.9577
M16
G05
G00X5.8091Y-4.9577
M15
G01X5.7894Y-4.9577
M16
G05
G00X5.9665Y-4.9577
M15
G01X5.9469Y-4.9577
M16
G05
G00X6.0256Y-4.7923
M15
G01X6.0059Y-4.7923
M16
G05
T0
M30
