%TF.GenerationSoftware,KiCad,Pcbnew,5.1.9+dfsg1-1*%
%TF.CreationDate,2021-04-08T16:28:42+09:00*%
%TF.ProjectId,not_enough_compositions,6e6f745f-656e-46f7-9567-685f636f6d70,rev?*%
%TF.SameCoordinates,Original*%
%TF.FileFunction,Profile,NP*%
%FSLAX46Y46*%
G04 Gerber Fmt 4.6, Leading zero omitted, Abs format (unit mm)*
G04 Created by KiCad (PCBNEW 5.1.9+dfsg1-1) date 2021-04-08 16:28:42*
%MOMM*%
%LPD*%
G01*
G04 APERTURE LIST*
%TA.AperFunction,Profile*%
%ADD10C,0.050000*%
%TD*%
G04 APERTURE END LIST*
D10*
X142200000Y-160737160D02*
X214000000Y-160737160D01*
X142200000Y-142875000D02*
X142200000Y-160737160D01*
X202000000Y-142875000D02*
X142200000Y-142875000D01*
X202000000Y-29787160D02*
X202000000Y-142875000D01*
X228800000Y-29787160D02*
X202000000Y-29787160D01*
X228800000Y-85725000D02*
X228800000Y-29787160D01*
X214000000Y-85725000D02*
X228800000Y-85725000D01*
X214000000Y-160737160D02*
X214000000Y-85725000D01*
X230000000Y-28587160D02*
X141000000Y-28587160D01*
X230000000Y-161937160D02*
X230000000Y-28587160D01*
X141000000Y-161937160D02*
X230000000Y-161937160D01*
X141000000Y-141000000D02*
X141000000Y-161937160D01*
X141000000Y-66500000D02*
X141000000Y-28587160D01*
X139000000Y-28587160D02*
X139000000Y-66500000D01*
X141000000Y-135000000D02*
X141000000Y-72500000D01*
X139000000Y-72500000D02*
X139000000Y-135000000D01*
X139000000Y-72500000D02*
G75*
G02*
X141000000Y-72500000I1000000J0D01*
G01*
X141000000Y-69500000D02*
G75*
G03*
X141000000Y-69500000I-1000000J0D01*
G01*
X141000000Y-66500000D02*
G75*
G02*
X139000000Y-66500000I-1000000J0D01*
G01*
X141000000Y-135000000D02*
G75*
G02*
X139000000Y-135000000I-1000000J0D01*
G01*
X141000000Y-138000000D02*
G75*
G03*
X141000000Y-138000000I-1000000J0D01*
G01*
X139000000Y-141000000D02*
G75*
G02*
X141000000Y-141000000I1000000J0D01*
G01*
X66000000Y-85725000D02*
X66000000Y-160737160D01*
X51200000Y-85725000D02*
X66000000Y-85725000D01*
X51200000Y-29775000D02*
X51200000Y-85725000D01*
X78000000Y-29775000D02*
X51200000Y-29775000D01*
X78000000Y-142875000D02*
X78000000Y-29775000D01*
X137800000Y-142875000D02*
X78000000Y-142875000D01*
X137800000Y-160737160D02*
X137800000Y-142875000D01*
X66000000Y-160737160D02*
X137800000Y-160737160D01*
X139000000Y-161937160D02*
X139000000Y-141000000D01*
X50000000Y-161937160D02*
X139000000Y-161937160D01*
X50000000Y-28587160D02*
X50000000Y-161937160D01*
X139000000Y-28587160D02*
X50000000Y-28587160D01*
M02*
